<svg xmlns="http://www.w3.org/2000/svg" viewBox="0 0 612.02 397.66"><defs><style>.cls-1{fill:#fff;}</style></defs><g id="font_outlines" data-name="font outlines"><path class="cls-1" d="M121.06,431.48H115.2L126,399.75h7.7l10.83,31.73h-5.85l-2.2-6.65h-13.2Zm9-27h-.48L124.44,420h10.61Z" transform="translate(-115 -105.53)"/><path class="cls-1" d="M160.83,407.45h5.41v.71c0,5.07-2,8.73-5.85,10.95l2.38,4.1c1.35,2.37,3.18,3.58,5.5,3.6v4.84a8.68,8.68,0,0,1-1.76.14q-5.19,0-8.58-6l-2.42-4.45-2.86,1.19v9h-5.37V397.91h5.37v19.93l3-1.23q5.19-2.16,5.19-8.14Z" transform="translate(-115 -105.53)"/><path class="cls-1" d="M179.22,416.91h6.16v-1.8c0-2.46-1.74-3.7-5.23-3.7a29,29,0,0,0-4.05.36,24.41,24.41,0,0,0-3.83.74v-4.57c1.09-.21,2.61-.44,4.58-.71a37.23,37.23,0,0,1,4.57-.3c3,0,5.3.72,6.93,2.17a8.09,8.09,0,0,1,2.44,6.36v16h-4.62l-.39-2.69h-.18a13.55,13.55,0,0,1-7.87,3,7.31,7.31,0,0,1-5.5-2.05,7.42,7.42,0,0,1-2-5.39,6.69,6.69,0,0,1,2.4-5.46A10,10,0,0,1,179.22,416.91Zm6.16,8.32v-4.49H180q-4.31,0-4.31,3.21a3.09,3.09,0,0,0,1,2.45,4,4,0,0,0,2.75.9A10.48,10.48,0,0,0,185.38,425.23Z" transform="translate(-115 -105.53)"/><path class="cls-1" d="M195,420.08q0-6.19,2.68-9.41,3.09-3.75,9.46-3.74a23.61,23.61,0,0,1,4.49.44v-9.46H217v33.57h-4.4l-.53-1.81a14.69,14.69,0,0,1-7.66,2.25,8.75,8.75,0,0,1-6.75-2.91Q195,426.12,195,420.08Zm5.54-.26a9.77,9.77,0,0,0,1.34,5.63,4.41,4.41,0,0,0,3.81,1.89,12.78,12.78,0,0,0,5.9-1.89v-13.6a21.5,21.5,0,0,0-3.88-.39q-3.73,0-5.45,2T200.56,419.82Z" transform="translate(-115 -105.53)"/><path class="cls-1" d="M242.8,425.8v4.67a33.31,33.31,0,0,1-9.41,1.54q-12,0-12-12.54,0-6.12,3-9.33t8.42-3.21q10.44,0,10.43,11.52v2.47H227.09q0,6.38,7.57,6.38A28.13,28.13,0,0,0,242.8,425.8ZM227,417h10.73q-.09-5.81-5.23-5.81a4.82,4.82,0,0,0-3.83,1.46A5.54,5.54,0,0,0,227,417Z" transform="translate(-115 -105.53)"/><path class="cls-1" d="M268.1,414.23v17.25h-5.37V415q0-3.17-3.3-3.17-2.51,0-6.29,2.42v17.25h-5.41v-24h5.06v2.69H253q4.7-3.21,8.27-3.21a7.24,7.24,0,0,1,3.94,1,5.41,5.41,0,0,1,2.22,2.46q5-3.47,8.84-3.47a6.63,6.63,0,0,1,5.13,1.89,7.44,7.44,0,0,1,1.74,5.23v17.43h-5.42V415q0-3.17-3.25-3.17a9.2,9.2,0,0,0-3,.7A13.22,13.22,0,0,0,268.1,414.23Z" transform="translate(-115 -105.53)"/><path class="cls-1" d="M288.52,398.83h5.54v5.37h-5.54Zm.09,8.62H294v24h-5.41Z" transform="translate(-115 -105.53)"/><path class="cls-1" d="M311.18,427.3a23,23,0,0,0,6.73-1.1v4.71a26,26,0,0,1-7.57,1.1,15.18,15.18,0,0,1-4.47-.64,11.57,11.57,0,0,1-3.78-2,9.1,9.1,0,0,1-2.73-3.89,18.53,18.53,0,0,1,0-11.95,9.05,9.05,0,0,1,2.75-3.91,11.81,11.81,0,0,1,3.81-2,14.94,14.94,0,0,1,4.42-.63,25.62,25.62,0,0,1,7.57,1.1v4.75a21.55,21.55,0,0,0-6.73-1.1q-7.31,0-7.31,7.79a8.36,8.36,0,0,0,1.85,5.76A6.93,6.93,0,0,0,311.18,427.3Z" transform="translate(-115 -105.53)"/><path class="cls-1" d="M335.9,407.45h5.42v.71c0,5.07-2,8.73-5.86,10.95l2.38,4.1c1.35,2.37,3.18,3.58,5.5,3.6v4.84a8.68,8.68,0,0,1-1.76.14q-5.19,0-8.58-6l-2.42-4.45-2.86,1.19v9h-5.37V397.91h5.37v19.93l3-1.23q5.19-2.16,5.19-8.14Z" transform="translate(-115 -105.53)"/><path class="cls-1" d="M346.9,398.83h5.55v5.37H346.9Zm.09,8.62h5.41v24H347Z" transform="translate(-115 -105.53)"/><path class="cls-1" d="M367.23,399.8h24.46V405l-17.24,21.65h18v4.8h-24.9v-5.24l17.34-21.65H367.23Z" transform="translate(-115 -105.53)"/><path class="cls-1" d="M416.33,425.8v4.67a33.31,33.31,0,0,1-9.41,1.54q-12,0-12-12.54,0-6.12,3-9.33t8.43-3.21q10.42,0,10.42,11.52v2.47H400.63q0,6.38,7.56,6.38A28.07,28.07,0,0,0,416.33,425.8ZM400.54,417h10.73c0-3.87-1.8-5.81-5.23-5.81a4.82,4.82,0,0,0-3.83,1.46A5.58,5.58,0,0,0,400.54,417Z" transform="translate(-115 -105.53)"/><path class="cls-1" d="M428.26,427.43q4.67,0,4.66-3.08a1.94,1.94,0,0,0-1.08-1.85,16.11,16.11,0,0,0-4.24-1.1c-2.91-.44-4.87-1.24-5.9-2.42a6.63,6.63,0,0,1-1.58-4.53,7.29,7.29,0,0,1,1.23-4.27c1.47-2.17,4.38-3.25,8.76-3.25a44.77,44.77,0,0,1,7.08.61l-.18,4.67a39.69,39.69,0,0,0-6.29-.66q-5.06,0-5.06,2.64a2,2,0,0,0,.84,1.67q.87.7,4.05,1.14a24.87,24.87,0,0,1,3.34.77,9.31,9.31,0,0,1,2.38,1.19,4.48,4.48,0,0,1,1.6,2,9.69,9.69,0,0,1,.6,3.15q0,7.88-10,7.88a67.55,67.55,0,0,1-8.23-.53l.18-4.8A63.53,63.53,0,0,0,428.26,427.43Z" transform="translate(-115 -105.53)"/><path class="cls-1" d="M448,431.21v9.29H442.6V407.45H448V410a13.79,13.79,0,0,1,8-3,7.59,7.59,0,0,1,6.18,3q2.44,3,2.44,8.84,0,6.33-2.86,9.68t-8.49,3.34A23.65,23.65,0,0,1,448,431.21Zm11.09-12a10,10,0,0,0-1.26-5.57,4,4,0,0,0-3.54-1.87c-1.85,0-3.94.82-6.29,2.47v12.58a19.81,19.81,0,0,0,4.62.66Q459.05,427.43,459.06,419.16Z" transform="translate(-115 -105.53)"/><path class="cls-1" d="M467.72,419.47q0-6.21,3.35-9.38a13.53,13.53,0,0,1,17.42,0q3.39,3.18,3.39,9.35t-3.39,9.35a12.22,12.22,0,0,1-8.71,3.19q-5.71,0-8.89-3.33T467.72,419.47Zm5.55,0q0,7.92,6.56,7.92t6.46-7.92q0-7.87-6.46-7.88T473.27,419.47Zm6.86-21.83h5.68l-4.23,6.78h-4.17Z" transform="translate(-115 -105.53)"/><path class="cls-1" d="M497.56,410.67V397.91H503v9.68l4.4-2.42v5L503,412.6v18.88h-5.41V415.59l-3.92,2.16v-4.88Z" transform="translate(-115 -105.53)"/><path class="cls-1" d="M539.75,431.57h-6.42l-8-25.3H525v25.21h-5.32V399.8h9l8.09,26,7.92-26h8.85v31.68h-5.28V406.27H548Z" transform="translate(-115 -105.53)"/><path class="cls-1" d="M559.51,425V407.45h5.41v16.46q0,3.21,3.17,3.21,2.77,0,7-2.37v-17.3h5.42v24h-4.58l-.44-2.64h-.18q-5.24,3.17-8.8,3.17a6.29,6.29,0,0,1-7-7Z" transform="translate(-115 -105.53)"/><path class="cls-1" d="M597.79,412.07h-13v-4.62h20.11v3.88l-12.54,15.53H605.8v4.62H585.07v-3.92Z" transform="translate(-115 -105.53)"/><path class="cls-1" d="M630.7,407.45,620.18,440.5h-5.63l3-9h-2.28l-7.75-24h5.9l5.5,18.22h.39l5.64-18.22Z" transform="translate(-115 -105.53)"/><path class="cls-1" d="M645,427.3a22.93,22.93,0,0,0,6.73-1.1v4.71a25.91,25.91,0,0,1-7.57,1.1,15.07,15.07,0,0,1-4.46-.64,11.51,11.51,0,0,1-3.79-2,9.17,9.17,0,0,1-2.72-3.89,18.53,18.53,0,0,1,0-11.95,9,9,0,0,1,2.75-3.91,11.76,11.76,0,0,1,3.8-2,15,15,0,0,1,4.42-.63,25.58,25.58,0,0,1,7.57,1.1v4.75a21.51,21.51,0,0,0-6.73-1.1q-7.31,0-7.3,7.79a8.35,8.35,0,0,0,1.84,5.76A7,7,0,0,0,645,427.3Z" transform="translate(-115 -105.53)"/><path class="cls-1" d="M667.84,412.07h-13v-4.62H675v3.88l-12.54,15.53h13.42v4.62H655.12v-3.92Z" transform="translate(-115 -105.53)"/><path class="cls-1" d="M700.84,414v17.47h-5.37V415q0-3.21-3.21-3.21-2.61,0-7,2.42v17.25h-5.37v-24h5v2.69h.17c3.55-2.14,6.49-3.21,8.8-3.21a7,7,0,0,1,5.17,1.78A7.18,7.18,0,0,1,700.84,414Z" transform="translate(-115 -105.53)"/><path class="cls-1" d="M727,407.45,716.5,440.5h-5.63l3-9h-2.29l-7.74-24h5.89l5.5,18.22h.4l5.63-18.22Z" transform="translate(-115 -105.53)"/><path class="cls-1" d="M126.88,484.31h-6.34v9.46H115V462.09h11.7a10,10,0,0,1,7.74,3.24,12,12,0,0,1,0,15.73A9.73,9.73,0,0,1,126.88,484.31ZM126,466.89h-5.5v12.63H126a4.7,4.7,0,0,0,4.36-2,7.6,7.6,0,0,0,0-8.56A4.66,4.66,0,0,0,126,466.89Z" transform="translate(-115 -105.53)"/><path class="cls-1" d="M139.77,481.76q0-6.19,3.34-9.37a13.53,13.53,0,0,1,17.43,0q3.39,3.19,3.38,9.35t-3.38,9.35a12.2,12.2,0,0,1-8.72,3.19q-5.72,0-8.88-3.32T139.77,481.76Zm5.54,0q0,7.92,6.56,7.92t6.47-7.92q0-7.87-6.47-7.87T145.31,481.76Z" transform="translate(-115 -105.53)"/><path class="cls-1" d="M168.32,460.2h5.37v33.57h-5.37Z" transform="translate(-115 -105.53)"/><path class="cls-1" d="M179.32,461.13h5.55v5.37h-5.55Zm.09,8.62h5.41v24h-5.41Z" transform="translate(-115 -105.53)"/><path class="cls-1" d="M204.23,474.37h-7.35v12.5a2.4,2.4,0,0,0,.81,2,3.37,3.37,0,0,0,2.18.66,11.67,11.67,0,0,0,3.43-.58v4.62a32.41,32.41,0,0,1-6.16.71q-5.67,0-5.67-5.54V474.37h-3.13V471l6.82-6.56h1.76v5.33h7.31Z" transform="translate(-115 -105.53)"/><path class="cls-1" d="M227.72,488.1v4.66a33,33,0,0,1-9.41,1.54q-12,0-12-12.54,0-6.11,3-9.33t8.43-3.21q10.42,0,10.42,11.53v2.47H212c0,4.25,2.55,6.37,7.56,6.37A28,28,0,0,0,227.72,488.1Zm-15.79-8.8h10.73q-.09-5.81-5.23-5.81a4.81,4.81,0,0,0-3.83,1.45A5.61,5.61,0,0,0,211.93,479.3Z" transform="translate(-115 -105.53)"/><path class="cls-1" d="M244.18,489.59a23,23,0,0,0,6.73-1.09v4.7a25.62,25.62,0,0,1-7.57,1.1,15.07,15.07,0,0,1-4.46-.63,11.7,11.7,0,0,1-3.79-2,9.1,9.1,0,0,1-2.73-3.89,18.53,18.53,0,0,1,0-11.95,9.09,9.09,0,0,1,2.75-3.92,12.08,12.08,0,0,1,3.81-2,14.94,14.94,0,0,1,4.42-.64,26,26,0,0,1,7.57,1.1v4.75a21.51,21.51,0,0,0-6.73-1.1q-7.31,0-7.31,7.79a8.37,8.37,0,0,0,1.85,5.77A6.93,6.93,0,0,0,244.18,489.59Z" transform="translate(-115 -105.53)"/><path class="cls-1" d="M276.34,476.31v17.46h-5.41V477.32q0-3.17-3.17-3.17-2.42,0-7,2.38v17.24h-5.42V460.2h5.42v12.1q5.19-3,8.58-3a6.26,6.26,0,0,1,7,7Z" transform="translate(-115 -105.53)"/><path class="cls-1" d="M302.79,476.31v17.46h-5.37V477.32q0-3.21-3.21-3.21c-1.74,0-4.07.8-7,2.42v17.24h-5.37v-24h5v2.68H287q5.33-3.21,8.8-3.21A7,7,0,0,1,301,471,7.17,7.17,0,0,1,302.79,476.31Z" transform="translate(-115 -105.53)"/><path class="cls-1" d="M308.2,461.13h5.54v5.37H308.2Zm.09,8.62h5.41v24h-5.41Z" transform="translate(-115 -105.53)"/><path class="cls-1" d="M332.88,469.75h5.41v.71q0,7.6-5.85,11l2.38,4.09q2,3.57,5.5,3.61V494a8.82,8.82,0,0,1-1.76.13q-5.19,0-8.58-6l-2.42-4.44-2.86,1.19v9h-5.37V460.2h5.37v19.93l3-1.23q5.19-2.14,5.19-8.14Z" transform="translate(-115 -105.53)"/><path class="cls-1" d="M343.88,461.13h5.54v5.37h-5.54Zm.09,8.62h5.41v24H344Z" transform="translate(-115 -105.53)"/><path class="cls-1" d="M373.75,489.51q6.83,0,6.83-5a3.62,3.62,0,0,0-.93-2.6,4.29,4.29,0,0,0-1.67-1,21.17,21.17,0,0,0-4.66-1c-3-.42-5.2-1.29-6.63-2.62s-2.17-3.47-2.26-6.41q0-9.31,12.19-9.32l2.2.08q1.35.09,5.93.53v4.93a66.64,66.64,0,0,0-8.05-.75q-6.6,0-6.6,4.4a3.43,3.43,0,0,0,1.15,2.73c.73.68,2.45,1.2,5.15,1.58a19.9,19.9,0,0,1,5.63,1.46,7.27,7.27,0,0,1,2.33,1.71q1.89,2,1.89,6a10.75,10.75,0,0,1-.62,3.74,9.36,9.36,0,0,1-1.95,3.17,9.08,9.08,0,0,1-3.76,2.29,17.79,17.79,0,0,1-5.72.83,49.18,49.18,0,0,1-9.38-.92v-5A51.62,51.62,0,0,0,373.75,489.51Zm2.87-36h5.67l-4.22,6.78h-4.18Z" transform="translate(-115 -105.53)"/><path class="cls-1" d="M390.56,460.2h5.37v33.57h-5.37Z" transform="translate(-115 -105.53)"/><path class="cls-1" d="M422,502.8a13.43,13.43,0,0,1-3.21.39,6.24,6.24,0,0,1-4.62-1.54,3.73,3.73,0,0,1-1.1-2.77,5.84,5.84,0,0,1,.72-2.64,7.66,7.66,0,0,1,2.14-2.51l-.4-2.64h-.18a13.67,13.67,0,0,1-7.87,3,6.89,6.89,0,0,1-7.48-7.39,6.71,6.71,0,0,1,2.38-5.46,10,10,0,0,1,6.6-2h6.16v-1.8q0-3.71-5.24-3.7-.79,0-1.8.09c-.68.06-1.43.15-2.25.26a22.83,22.83,0,0,0-3.83.75v-4.58c.56-.11,1.21-.22,2-.33l2.62-.37c.82-.12,1.61-.2,2.35-.24s1.49-.07,2.23-.07c3,0,5.33.72,6.95,2.16s2.42,3.56,2.42,6.38v16H420a7,7,0,0,0-2.29,1.85,3.56,3.56,0,0,0-.74,2.11,2,2,0,0,0,1,1.74,4.8,4.8,0,0,0,2.66.64l.72,0a2.57,2.57,0,0,0,.6-.11Zm-6.86-15.27V483h-5.37c-2.88,0-4.31,1.07-4.31,3.21a3.06,3.06,0,0,0,1,2.44,4,4,0,0,0,2.75.9A10.65,10.65,0,0,0,415.12,487.53Z" transform="translate(-115 -105.53)"/><path class="cls-1" d="M433,489.73q4.66,0,4.66-3.08a1.94,1.94,0,0,0-1.08-1.85,16.11,16.11,0,0,0-4.24-1.1c-2.91-.44-4.87-1.25-5.9-2.42a6.63,6.63,0,0,1-1.58-4.53,7.24,7.24,0,0,1,1.23-4.27q2.21-3.25,8.76-3.26a44.85,44.85,0,0,1,7.08.62l-.18,4.66a39.69,39.69,0,0,0-6.29-.66q-5.06,0-5.06,2.64a2,2,0,0,0,.84,1.67,9.43,9.43,0,0,0,4,1.15,23.41,23.41,0,0,1,3.34.77,9,9,0,0,1,2.38,1.19,4.43,4.43,0,0,1,1.6,2,9.69,9.69,0,0,1,.6,3.15q0,7.88-9.95,7.87a65.6,65.6,0,0,1-8.23-.53l.18-4.79A63.53,63.53,0,0,0,433,489.73Z" transform="translate(-115 -105.53)"/><path class="cls-1" d="M460.87,469.75h5.42v.71q0,7.6-5.86,11l2.38,4.09q2,3.57,5.5,3.61V494a8.82,8.82,0,0,1-1.76.13q-5.19,0-8.58-6l-2.42-4.44-2.86,1.19v9h-5.37V460.2h5.37v19.93l3-1.23q5.19-2.14,5.19-8.14Z" transform="translate(-115 -105.53)"/><path class="cls-1" d="M471.87,461.13h5.55v5.37h-5.55Zm.09,8.62h5.41v24H472Z" transform="translate(-115 -105.53)"/><path class="cls-1" d="M503.16,488.1v4.66a33,33,0,0,1-9.42,1.54q-12,0-12-12.54,0-6.11,3-9.33t8.43-3.21q10.43,0,10.43,11.53v2.47H487.45q0,6.38,7.57,6.37A28.07,28.07,0,0,0,503.16,488.1Zm-15.8-8.8H498.1q-.09-5.81-5.24-5.81a4.83,4.83,0,0,0-3.83,1.45A5.61,5.61,0,0,0,487.36,479.3Z" transform="translate(-115 -105.53)"/><path class="cls-1" d="M508.13,469.75h5.41v21.17a12.65,12.65,0,0,1-7.08,12.18l-2.6-3.87a9.6,9.6,0,0,0,3.39-3.56,12.1,12.1,0,0,0,.88-5.06Zm-.05-8.62h5.55v5.37h-5.55Z" transform="translate(-115 -105.53)"/></g><g id="logo"><path class="cls-1" d="M711.71,132.41H680.27l-30,115.88-43.3-115.88H560.84V337.33H446l87.49-204.92H413.94v5h73.48L402,337.33H371L295.3,161.47a28.9,28.9,0,0,0,12.42,2.78,29.33,29.33,0,1,0-28.29-36.89l-12.9,31.36L248.07,203.6a48.68,48.68,0,1,0-36.95,89.84L195.6,331.15a27.86,27.86,0,0,0-43.2-21.3,27.47,27.47,0,0,0-7.27,7,27.84,27.84,0,1,0,45.38,32.27,27.49,27.49,0,0,0,3.58-6.87l0,0,4.21-10,16-37.91a48.7,48.7,0,0,0,60.53-41.34h12l39.71,89.27H565.83V139.09l42.32,113.27h46.16L681.72,146.7V342.32h45V132.41ZM187.26,346.86a23.85,23.85,0,0,1-41.67-5.18h0c.93-8.33,8.13-6.26,9.82-5.66l.3.11.06,0h0a12.53,12.53,0,1,0,.35-23.87,23.84,23.84,0,0,1,31.13,34.59Zm13.36-63.18a44.71,44.71,0,0,1-10.52-62.32,44.81,44.81,0,0,1,36.47-18.79,44.18,44.18,0,0,1,20,4.73l-5.43,13.18a30.31,30.31,0,0,0-14.5-3.68H226a4.51,4.51,0,0,0-.52,0h-.08A30.5,30.5,0,0,0,218,276.59l-5.27,12.81-.14.35A45,45,0,0,1,200.62,283.68ZM208,250.83a12.53,12.53,0,0,0,15.89-18.69l0,0c-.07-.09-.14-.16-.2-.25-1.12-1.37-5.36-7.4,1.91-11h1.06a26.2,26.2,0,0,1,13,3.41h0l-8.8,21.41-.3.72-.61,1.48-10,24.42-.27.65a26.15,26.15,0,0,1-8.34-4,26.54,26.54,0,0,1-9.74-30.13A12.55,12.55,0,0,0,208,250.83Zm23.8,2.22h20.68a26.47,26.47,0,0,1-25.11,20.76h-.8c-.29,0-.58,0-.87,0s-.57,0-.86,0c-.58,0-1.15-.1-1.72-.17Zm2.11-5L243,226.5a26.54,26.54,0,0,1,10.07,21.56Zm29,25.1a44.76,44.76,0,0,1-47,17.52l5.62-13.29a24.24,24.24,0,0,0,3.07.35h0c.34,0,.67.05,1,.06s.59,0,.88,0h.92a30.54,30.54,0,0,0,29.16-24.76h14.27A44.25,44.25,0,0,1,262.94,273.16Zm-5.84-25.1a30.44,30.44,0,0,0-12.48-25.35l5.63-13.32c.74.46,1.46.94,2.17,1.45a44.36,44.36,0,0,1,18.16,29,45,45,0,0,1,.63,8.24Zm18.1,0a48.59,48.59,0,0,0-20.47-40.47q-1.42-1-2.91-1.92l6.8-16.07,26,58.46Zm17.4-92.84a25.3,25.3,0,0,1-10.1-22.14l.28-.66-.19-.31a25.32,25.32,0,1,1,10.48,23.46Z" transform="translate(-115 -105.53)"/><path class="cls-1" d="M146,301.75a2,2,0,0,0,1.68-3.06,96.14,96.14,0,0,1-12.47-29.85,4.21,4.21,0,0,0-4.62-3.24l-10.15,1.29a.2.2,0,0,1-.23-.18l-1.2-9.47a.2.2,0,0,1,.17-.23l10-1.27a4.18,4.18,0,0,0,3.66-4.36,94.22,94.22,0,0,1,4.27-32.2,4.19,4.19,0,0,0-2.37-5.15l-9.18-3.85a.24.24,0,0,1-.11-.28l3.69-8.8a.24.24,0,0,1,.27-.11l9.18,3.86a4.19,4.19,0,0,0,5.34-1.92,94.07,94.07,0,0,1,20-25.61,4.19,4.19,0,0,0,.55-5.67l-6.11-8a.26.26,0,0,1,0-.29l7.6-5.77a.21.21,0,0,1,.29,0l6.19,8.15a4.21,4.21,0,0,0,5.55,1,96.27,96.27,0,0,1,30-12,4.17,4.17,0,0,0,3.3-4.63L210,139.7a.2.2,0,0,1,.18-.23l9.46-1.2a.18.18,0,0,1,.23.18L221.25,149a4.2,4.2,0,0,0,4.31,3.66,96.42,96.42,0,0,1,31.87,4.49,2,2,0,0,0,1.2-3.81,100.06,100.06,0,0,0-33.19-4.67.21.21,0,0,1-.23-.18l-1.33-10.53a4.22,4.22,0,0,0-4.7-3.63l-9.47,1.2a4.19,4.19,0,0,0-3.63,4.7l1.32,10.41a.22.22,0,0,1-.18.23,100.19,100.19,0,0,0-31.28,12.51.21.21,0,0,1-.29,0l-6.19-8.14a4.2,4.2,0,0,0-5.88-.8l-7.6,5.77a4.2,4.2,0,0,0-.8,5.89l6.1,8a.23.23,0,0,1,0,.29,97.94,97.94,0,0,0-20.83,26.7.2.2,0,0,1-.27.11L131,197.31a4.21,4.21,0,0,0-5.5,2.25l-3.69,8.8a4.22,4.22,0,0,0,2.25,5.5l9.19,3.85a.22.22,0,0,1,.11.27,97.93,97.93,0,0,0-4.46,33.57.21.21,0,0,1-.18.23l-10,1.27a4.21,4.21,0,0,0-3.64,4.7l1.21,9.47a4.19,4.19,0,0,0,4.69,3.63l10.15-1.29a.23.23,0,0,1,.23.18,100,100,0,0,0,13,31.08A2,2,0,0,0,146,301.75Z" transform="translate(-115 -105.53)"/></g></svg>